<svg xmlns="http://www.w3.org/2000/svg" viewBox="0 0 88.68 114.67"><defs><style>.cls-1{fill:#fff;}</style></defs><g id="Capa_2" data-name="Capa 2"><g id="Capa_2-2" data-name="Capa 2"><path class="cls-1" d="M43.94,75.71a25.18,25.18,0,0,0,6.36-1.39q3.44-1.45,3.44-4.53,0-3.75-2.64-5.17c-1.76-1-4.33-1.43-7.73-1.43-3.82,0-6.52.94-8.11,2.8A11.58,11.58,0,0,0,33,71.58H17.63q.5-8,4.49-13.14,6.35-8,21.78-8a38.89,38.89,0,0,1,17.85,4q7.8,4,7.81,15v28c0,1.94,0,4.29.11,7a8.72,8.72,0,0,0,1,4.25A5.71,5.71,0,0,0,73,110.43v2.34H55.64a17.61,17.61,0,0,1-1-3.46c-.19-1.08-.33-2.31-.45-3.69a32.89,32.89,0,0,1-7.64,6.09,23.07,23.07,0,0,1-11.7,3q-8.33,0-13.74-4.72T15.67,96.56q0-11.24,8.73-16.26,4.79-2.74,14.08-3.91Zm9.74,7.44a18.53,18.53,0,0,1-3.09,1.54,26.6,26.6,0,0,1-4.28,1.09l-3.62.67a23.71,23.71,0,0,0-7.33,2.18,7.29,7.29,0,0,0-3.76,6.76q0,4.08,2.3,5.9a8.74,8.74,0,0,0,5.59,1.81,16.65,16.65,0,0,0,9.62-3q4.39-3,4.57-11Z"/><rect id="rect16" class="cls-1" x="38.71" width="10.23" height="38.51"/><rect id="rect18" class="cls-1" x="8.87" y="22.91" width="10.23" height="29.31" transform="translate(-22.47 20.89) rotate(-45)"/><rect id="rect20" class="cls-1" x="59.59" y="31.04" width="29.83" height="10.23" transform="translate(-3.74 63.28) rotate(-45)"/></g></g></svg>